<svg width="96" height="64" viewBox="0 0 96 64" fill="none" xmlns="http://www.w3.org/2000/svg">
<path opacity="0.07" d="M86.7368 0H9.26316C5.14737 0 2 3.14167 2 7.25V50.75C2 54.8583 5.38947 58 9.26316 58H86.7368C90.8526 58 94 54.8583 94 50.75V7.25C94 3.14167 90.6105 0 86.7368 0Z" fill="black"/>
<g filter="url(#filter0_d_4308_196)">
<path d="M86.7369 2.41663C89.4001 2.41663 91.579 4.59163 91.579 7.24996V50.75C91.579 53.4083 89.4001 55.5833 86.7369 55.5833H9.26325C6.60009 55.5833 4.42114 53.4083 4.42114 50.75V7.24996C4.42114 4.59163 6.60009 2.41663 9.26325 2.41663H86.7369Z" fill="white"/>
</g>
<path d="M45.8025 28.9413V36.6747H43.3379V17.583H49.8529C50.6336 17.5698 51.4091 17.7108 52.135 17.9978C52.8608 18.2848 53.5227 18.7121 54.0825 19.2553C54.6128 19.7493 55.0404 20.3427 55.3408 21.0017C55.6412 21.6607 55.8086 22.3723 55.8333 23.0959C55.858 23.8195 55.7396 24.5409 55.4849 25.2187C55.2302 25.8966 54.8442 26.5178 54.3488 27.0467L54.0825 27.327C52.9446 28.4072 51.4242 28.9945 49.8529 28.9558L45.8025 28.9413ZM45.8025 19.9223V26.66H49.9135C50.8262 26.689 51.7075 26.3338 52.3466 25.6837C52.8038 25.208 53.1108 24.6086 53.2294 23.9602C53.348 23.3117 53.273 22.6428 53.0137 22.0365C52.7544 21.4303 52.3223 20.9135 51.7711 20.5505C51.2198 20.1875 50.5739 19.9942 49.9135 19.9948L45.8025 19.9223ZM61.5006 23.18C63.0743 23.1075 64.6141 23.6343 65.8053 24.6614C66.8826 25.7006 67.4564 27.1506 67.3789 28.6465V36.7037H65.0329V34.8525H64.9143C64.4936 35.5468 63.8987 36.1196 63.1883 36.5141C62.478 36.9087 61.6768 37.1115 60.8639 37.1024C59.5369 37.1453 58.2429 36.6851 57.242 35.8143C56.7678 35.4282 56.3877 34.9395 56.1306 34.3852C55.8735 33.8309 55.7461 33.2254 55.7579 32.6147C55.7299 31.9974 55.85 31.3825 56.1082 30.8209C56.3663 30.2593 56.755 29.7674 57.242 29.386C58.4366 28.5285 59.8824 28.0907 61.3529 28.1414C62.6046 28.0931 63.8466 28.3662 64.9603 28.9413V28.4387C64.9685 28.0231 64.8818 27.6111 64.7069 27.2338C64.532 26.8566 64.2734 26.524 63.9507 26.2612C63.3027 25.6732 62.4537 25.355 61.5781 25.3719C60.9421 25.3659 60.3152 25.5219 59.7564 25.8251C59.1976 26.1283 58.7255 26.5687 58.3847 27.1047L56.2179 25.7417C56.8063 24.9002 57.6006 24.223 58.5253 23.7746C59.45 23.3262 60.4743 23.1215 61.5006 23.18ZM58.3847 32.6727C58.3789 32.9857 58.4503 33.2953 58.5925 33.5743C58.7348 33.8533 58.9437 34.093 59.2006 34.2725C59.7405 34.6978 60.4112 34.9226 61.1012 34.9081C62.1398 34.9057 63.1348 34.4972 63.8757 33.7674C64.6141 33.0763 65.0329 32.112 65.0329 31.1018C64.1009 30.4404 62.9684 30.1211 61.8275 30.198C60.9416 30.1632 60.0678 30.4121 59.3338 30.9085C59.0431 31.1026 58.8045 31.365 58.6391 31.6726C58.4736 31.9801 58.3863 32.3236 58.3847 32.6727ZM80.8666 23.6102L72.6593 42.436H70.122L73.2234 35.8433L67.8389 23.6102H70.5094L74.4121 32.9989L78.2107 23.6102H80.8666Z" fill="#5F6368"/>
<path d="M35.8609 27.2703C35.8609 26.526 35.8028 25.7817 35.6842 25.047H25.2979V29.2689H31.2319C31.111 29.9399 30.8558 30.5796 30.4814 31.1498C30.107 31.7199 29.6211 32.2088 29.0529 32.587V35.3275H32.5973C33.675 34.2866 34.5223 33.0318 35.0844 31.6441C35.6465 30.2563 35.911 28.7664 35.8609 27.2703Z" fill="#4285F4"/>
<path d="M25.3103 37.9923C27.9888 38.0657 30.5947 37.1177 32.5977 35.3412L29.0485 32.5862C28.1956 33.132 27.2294 33.4765 26.2231 33.5935C25.2169 33.7105 24.1972 33.5969 23.2415 33.2614C22.2859 32.9258 21.4194 32.3772 20.7081 31.6572C19.9968 30.9372 19.4594 30.0647 19.1367 29.1062H15.5002V31.9337C16.4102 33.7535 17.81 35.2844 19.5428 36.3545C21.2756 37.4246 23.2727 37.9917 25.3103 37.9923Z" fill="#34A853"/>
<path d="M19.1389 29.1197C18.6784 27.7598 18.6784 26.2866 19.1389 24.9267V22.0992H15.5025C14.7273 23.6253 14.3232 25.3122 14.3232 27.0232C14.3232 28.7342 14.7273 30.4211 15.5025 31.9472L19.1389 29.1197Z" fill="#FBBC04"/>
<path d="M25.3103 20.3972C26.8768 20.3686 28.391 20.9593 29.523 22.0405L32.6703 18.9157C30.6635 17.0356 28.0017 16.0101 25.2498 16.0568C23.2243 16.067 21.2411 16.6368 19.5202 17.7033C17.7993 18.7697 16.4079 20.291 15.5002 22.0985L19.1367 24.9284C19.5619 23.6236 20.3861 22.4847 21.4936 21.6719C22.601 20.8591 23.9359 20.4133 25.3103 20.3972Z" fill="#EA4335"/>
<defs>
<filter id="filter0_d_4308_196" x="0.421143" y="2.41663" width="95.158" height="61.1666" filterUnits="userSpaceOnUse" color-interpolation-filters="sRGB">
<feFlood flood-opacity="0" result="BackgroundImageFix"/>
<feColorMatrix in="SourceAlpha" type="matrix" values="0 0 0 0 0 0 0 0 0 0 0 0 0 0 0 0 0 0 127 0" result="hardAlpha"/>
<feOffset dy="4"/>
<feGaussianBlur stdDeviation="2"/>
<feComposite in2="hardAlpha" operator="out"/>
<feColorMatrix type="matrix" values="0 0 0 0 0 0 0 0 0 0 0 0 0 0 0 0 0 0 0.25 0"/>
<feBlend mode="normal" in2="BackgroundImageFix" result="effect1_dropShadow_4308_196"/>
<feBlend mode="normal" in="SourceGraphic" in2="effect1_dropShadow_4308_196" result="shape"/>
</filter>
</defs>
</svg>
