<svg width="92" height="58" viewBox="0 0 92 58" fill="none" xmlns="http://www.w3.org/2000/svg">
<path opacity="0.07" d="M84.7368 0H7.26316C3.14737 0 0 3.14167 0 7.25V50.75C0 54.8583 3.38947 58 7.26316 58H84.7368C88.8526 58 92 54.8583 92 50.75V7.25C92 3.14167 88.6105 0 84.7368 0Z" fill="black"/>
<path d="M84.7369 2.41663C87.4001 2.41663 89.579 4.59163 89.579 7.24996V50.75C89.579 53.4083 87.4001 55.5833 84.7369 55.5833H7.26325C4.60009 55.5833 2.42114 53.4083 2.42114 50.75V7.24996C2.42114 4.59163 4.60009 2.41663 7.26325 2.41663H84.7369Z" fill="white"/>
<path d="M36.3155 45.9167C45.6753 45.9167 53.2629 38.3429 53.2629 29C53.2629 19.6572 45.6753 12.0834 36.3155 12.0834C26.9558 12.0834 19.3682 19.6572 19.3682 29C19.3682 38.3429 26.9558 45.9167 36.3155 45.9167Z" fill="#EB001B"/>
<path d="M55.6847 45.9167C65.0444 45.9167 72.632 38.3429 72.632 29C72.632 19.6572 65.0444 12.0834 55.6847 12.0834C46.3249 12.0834 38.7373 19.6572 38.7373 29C38.7373 38.3429 46.3249 45.9167 55.6847 45.9167Z" fill="#F79E1B"/>
<path d="M53.2636 29C53.2636 23.2 50.3584 18.125 46.0005 15.225C41.6426 18.3666 38.7373 23.4416 38.7373 29C38.7373 34.5583 41.6426 39.875 46.0005 42.775C50.3584 39.875 53.2636 34.8 53.2636 29Z" fill="#FF5F00"/>
</svg>
