<svg width="92" height="58" viewBox="0 0 92 58" fill="none" xmlns="http://www.w3.org/2000/svg">
<path opacity="0.07" d="M84.7368 0H7.26316C3.14737 0 0 3.14167 0 7.25V50.75C0 54.8583 3.38947 58 7.26316 58H84.7368C88.8526 58 92 54.8583 92 50.75V7.25C92 3.14167 88.6105 0 84.7368 0Z" fill="black"/>
<path d="M84.7369 2.41663C87.4001 2.41663 89.579 4.59163 89.579 7.24996V50.75C89.579 53.4083 87.4001 55.5833 84.7369 55.5833H7.26325C4.60009 55.5833 2.42114 53.4083 2.42114 50.75V7.24996C2.42114 4.59163 4.60009 2.41663 7.26325 2.41663H84.7369Z" fill="white"/>
<path d="M68.5158 24.4084H67.7894C66.821 26.825 66.0947 28.0334 65.3684 31.6584H69.9684C69.2421 28.0334 69.2421 26.3417 68.5158 24.4084ZM75.5368 38.6667H71.421C71.1789 38.6667 71.1789 38.6667 70.9368 38.425L70.4526 36.25L70.2105 35.7667H64.4C64.1579 35.7667 63.9158 35.7667 63.9158 36.25L63.1894 38.425C63.1894 38.6667 62.9473 38.6667 62.9473 38.6667H57.8631L58.3473 37.4584L65.3684 21.025C65.3684 19.8167 66.0947 19.3334 67.3052 19.3334H70.9368C71.1789 19.3334 71.421 19.3334 71.421 19.8167L74.8105 35.525C75.0526 36.4917 75.2947 37.2167 75.2947 38.1834C75.5368 38.425 75.5368 38.425 75.5368 38.6667ZM43.0947 37.9417L44.0631 33.5917C44.3052 33.5917 44.5473 33.8334 44.5473 33.8334C46.2421 34.5584 47.9368 35.0417 49.6315 34.8C50.1158 34.8 50.8421 34.5584 51.3263 34.3167C52.5368 33.8334 52.5368 32.625 51.5684 31.6584C51.0842 31.175 50.3579 30.9334 49.6315 30.45C48.6631 29.9667 47.6947 29.4834 46.9684 28.7584C44.0631 26.3417 45.0315 22.9584 46.7263 21.2667C48.1789 20.3 48.9052 19.3334 50.8421 19.3334C53.7473 19.3334 56.8947 19.3334 58.3473 19.8167H58.5894C58.3473 21.2667 58.1052 22.475 57.621 23.925C56.4105 23.4417 55.2 22.9584 53.9894 22.9584C53.2631 22.9584 52.5368 22.9584 51.8105 23.2C51.3263 23.2 51.0842 23.4417 50.8421 23.6834C50.3579 24.1667 50.3579 24.8917 50.8421 25.375L52.0526 26.3417C53.021 26.825 53.9894 27.3084 54.7158 27.7917C55.9263 28.5167 57.1368 29.725 57.3789 31.175C57.8631 33.35 57.1368 35.2834 55.2 36.7334C53.9894 37.7 53.5052 38.1834 51.8105 38.1834C48.421 38.1834 45.7579 38.425 43.5789 37.7C43.3368 38.1834 43.3368 38.1834 43.0947 37.9417ZM34.621 38.6667C34.8631 36.975 34.8631 36.975 35.1052 36.25C36.3158 30.9334 37.5263 25.375 38.4947 20.0584C38.7368 19.575 38.7368 19.3334 39.221 19.3334H43.5789C43.0947 22.2334 42.6105 24.4084 41.8842 27.0667C41.1579 30.6917 40.4315 34.3167 39.4631 37.9417C39.4631 38.425 39.221 38.425 38.7368 38.425M12.1052 19.8167C12.1052 19.575 12.5894 19.3334 12.8315 19.3334H21.0631C22.2736 19.3334 23.2421 20.0584 23.4842 21.2667L25.6631 31.9C25.6631 32.1417 25.6631 32.1417 25.9052 32.3834C25.9052 32.1417 26.1473 32.1417 26.1473 32.1417L31.2315 19.8167C30.9894 19.575 31.2315 19.3334 31.4736 19.3334H36.5579C36.5579 19.575 36.5579 19.575 36.3158 19.8167L28.8105 37.4584C28.5684 37.9417 28.5684 38.1834 28.3263 38.425C28.0842 38.6667 27.6 38.425 27.1158 38.425H23.4842C23.2421 38.425 23 38.425 23 37.9417L19.1263 22.9584C18.6421 22.475 17.9158 21.75 16.9473 21.5084C15.4947 20.7834 12.8315 20.3 12.3473 20.3L12.1052 19.8167Z" fill="#142688"/>
</svg>
